<?xml version="1.0" standalone="no"?>
<!DOCTYPE svg PUBLIC "-//W3C//DTD SVG 20010904//EN"
 "http://www.w3.org/TR/2001/REC-SVG-20010904/DTD/svg10.dtd">
<svg version="1.0" xmlns="http://www.w3.org/2000/svg"
 width="380.000000pt" height="380.000000pt" viewBox="0 0 380.000000 380.000000"
 preserveAspectRatio="xMidYMid meet">
<metadata>
Created by potrace 1.14, written by Peter Selinger 2001-2017
</metadata>
<g transform="translate(0.000000,380.000000) scale(0.100000,-0.100000)"
fill="#000000" stroke="none">
<path d="M1644 3549 c-190 -35 -418 -123 -573 -221 -179 -113 -378 -301 -484
-460 -122 -183 -216 -400 -262 -608 -22 -100 -32 -448 -15 -563 49 -344 210
-669 453 -916 233 -237 509 -390 834 -464 87 -19 127 -22 343 -22 216 0 256 3
343 22 682 154 1190 698 1287 1380 17 115 8 454 -14 558 -54 252 -166 492
-321 690 -250 317 -619 538 -1013 606 -154 26 -433 25 -578 -2z m562 -44 c516
-83 973 -435 1188 -913 399 -888 -69 -1917 -996 -2192 -367 -109 -741 -87
-1096 65 -753 323 -1137 1179 -880 1965 194 596 728 1024 1358 1090 107 11
310 4 426 -15z"/>
<path d="M1854 3421 c-20 -12 -38 -36 -49 -64 -48 -127 86 -234 203 -161 48
31 12 65 -40 38 -58 -30 -118 8 -118 74 0 65 63 102 121 71 23 -12 59 -3 59
15 0 20 -56 46 -102 46 -25 0 -56 -8 -74 -19z"/>
<path d="M2130 3402 c-41 -20 -70 -71 -70 -122 0 -72 63 -130 140 -130 136 0
180 195 57 253 -45 22 -83 21 -127 -1z m121 -61 c32 -33 36 -58 14 -100 -15
-31 -33 -41 -70 -41 -37 0 -55 10 -71 42 -20 38 -10 82 23 108 36 28 69 25
104 -9z"/>
<path d="M1575 3390 c-3 -5 1 -33 10 -61 8 -29 12 -55 9 -58 -3 -3 -24 -11
-47 -17 l-42 -10 -16 55 c-10 38 -21 57 -33 59 -36 7 -36 -14 -5 -124 38 -133
38 -134 66 -123 19 7 21 12 12 41 -5 18 -9 36 -9 39 0 6 77 29 94 29 3 0 8
-16 12 -35 5 -28 11 -35 28 -35 34 0 36 7 19 63 -53 186 -54 187 -73 187 -10
0 -22 -4 -25 -10z"/>
<path d="M2365 3243 c-36 -91 -43 -118 -33 -124 24 -16 38 -9 53 27 13 31 17
34 35 24 14 -7 20 -21 20 -45 0 -36 21 -65 47 -65 13 0 15 9 10 48 -5 42 -3
49 16 57 12 6 30 27 40 47 26 53 9 85 -63 120 -30 15 -60 28 -66 28 -7 0 -33
-52 -59 -117z m116 41 c24 -12 30 -21 27 -42 -2 -22 -9 -27 -33 -30 -49 -4
-60 9 -44 52 7 20 15 36 17 36 1 0 17 -7 33 -16z"/>
<path d="M1269 3287 c-41 -27 -50 -71 -21 -107 14 -18 32 -24 75 -28 90 -7
102 -43 21 -63 -32 -8 -44 -16 -44 -30 0 -26 11 -29 58 -17 54 14 92 49 92 86
0 41 -30 63 -97 74 -32 5 -62 13 -67 18 -14 14 11 38 42 42 19 2 28 10 30 26
3 18 -1 22 -26 22 -16 0 -44 -10 -63 -23z"/>
<path d="M2624 3218 c-15 -24 -44 -70 -66 -104 -21 -34 -38 -64 -38 -67 0 -4
9 -11 20 -17 18 -10 24 -4 59 50 l38 61 18 -89 c9 -49 21 -95 26 -103 11 -19
22 -7 93 109 54 88 56 95 39 108 -10 7 -20 14 -23 14 -3 0 -22 -27 -41 -60
l-36 -61 -17 83 c-30 140 -31 142 -72 76z"/>
<path d="M1093 3185 c-29 -19 -53 -38 -53 -42 0 -3 30 -53 66 -110 l66 -103
38 21 c21 12 51 32 66 44 27 22 28 25 13 40 -16 16 -19 15 -55 -9 -27 -18 -41
-23 -49 -15 -7 7 0 18 23 37 54 45 36 78 -24 42 -19 -12 -36 -21 -38 -19 -15
20 -36 55 -36 60 0 3 18 18 41 33 33 22 38 30 28 42 -16 20 -27 17 -86 -21z"/>
<path d="M2800 3008 l-81 -93 52 -47 c56 -51 76 -58 86 -31 4 11 -5 25 -31 46
-29 23 -34 32 -25 43 9 11 16 10 41 -11 34 -29 41 -30 57 -11 9 11 4 20 -23
44 l-34 30 28 27 29 28 37 -31 c29 -24 41 -29 51 -20 7 6 13 16 13 22 -1 11
-89 87 -108 94 -5 1 -47 -39 -92 -90z"/>
<path d="M895 3029 c-25 -23 -45 -46 -45 -51 0 -6 37 -50 82 -99 77 -85 82
-88 100 -73 17 17 17 18 -7 50 -22 28 -23 33 -9 45 13 10 23 10 59 -3 41 -16
44 -15 61 3 20 23 19 25 -32 43 -26 9 -38 19 -36 29 4 23 -24 74 -47 87 -41
21 -80 12 -126 -31z m103 -21 c18 -18 14 -42 -11 -66 -22 -21 -24 -21 -39 -5
-28 33 -30 44 -12 64 20 22 44 25 62 7z"/>
<path d="M2951 2884 c-50 -42 -91 -82 -91 -89 0 -6 5 -16 12 -23 9 -9 19 -6
43 13 24 18 35 21 44 12 15 -15 14 -32 -4 -67 -13 -24 -13 -33 -3 -50 19 -30
33 -24 48 20 11 32 18 40 37 40 59 0 114 61 98 109 -6 21 -71 104 -85 109 -4
2 -49 -32 -99 -74z m129 -50 c0 -14 -9 -28 -21 -35 -18 -9 -25 -7 -48 16 l-26
26 29 25 c27 24 29 24 47 8 11 -9 19 -27 19 -40z"/>
<path d="M757 2884 c-26 -31 -47 -59 -47 -63 0 -4 43 -42 96 -85 78 -63 98
-75 110 -66 21 18 17 36 -11 54 -31 20 -31 27 0 64 18 22 21 32 13 40 -18 18
-26 15 -56 -18 l-27 -29 -29 23 -29 24 19 28 c10 15 23 33 29 40 7 10 5 18 -6
29 -14 15 -20 11 -62 -41z"/>
<path d="M1394 2582 c-37 -24 -36 -91 1 -106 9 -3 261 -6 559 -6 513 0 544 1
559 18 22 24 21 65 -1 85 -17 15 -70 17 -563 17 -299 0 -549 -4 -555 -8z
m1094 -54 c3 -17 -28 -18 -537 -18 -349 0 -542 4 -546 10 -3 6 -3 15 0 20 4 7
190 9 543 8 502 -3 537 -4 540 -20z"/>
<path d="M1397 2447 c-3 -7 -39 -88 -81 -181 -90 -199 -94 -230 -42 -282 19
-19 44 -34 58 -34 20 -1 21 -2 6 -11 -17 -9 -18 -35 -18 -309 l0 -300 -27 0
c-41 0 -55 -13 -51 -46 l3 -29 374 -2 c260 -2 379 1 388 8 9 8 13 8 13 0 0
-17 377 -15 383 2 4 10 6 9 6 0 1 -10 30 -13 110 -13 125 0 141 4 141 34 0 31
-19 46 -56 46 -29 0 -33 3 -32 28 0 15 0 152 -1 305 -1 256 -2 277 -18 277
-13 1 47 28 64 30 9 1 43 73 43 92 0 13 -37 107 -83 209 l-83 184 -126 3
c-114 2 -127 1 -131 -15 -4 -17 -5 -17 -6 -1 -1 16 -30 18 -415 17 -315 0
-415 -3 -419 -12z m175 -419 c-8 -8 -9 -4 -5 13 4 13 8 18 11 10 2 -7 -1 -18
-6 -23z m388 8 c9 -12 8 -15 -8 -13 -12 0 -18 6 -15 14 6 16 8 16 23 -1z m374
-4 c2 -4 -4 -8 -14 -8 -10 0 -16 4 -14 8 3 4 9 8 14 8 5 0 11 -4 14 -8z m-708
-34 l29 -33 -32 29 c-18 17 -33 31 -33 33 0 8 8 1 36 -29z m395 -15 c13 -16
12 -17 -3 -4 -17 13 -22 21 -14 21 2 0 10 -8 17 -17z m-415 -24 c10 -12 37
-30 59 -40 l40 -19 -112 0 c-88 0 -115 -3 -127 -16 -14 -13 -16 -55 -16 -305
l0 -289 -47 0 -48 0 3 303 3 303 57 12 c32 7 78 25 102 41 55 36 62 37 86 10z
m380 -4 c19 -14 49 -32 66 -40 l33 -14 -58 -1 c-101 0 -97 9 -97 -221 l0 -200
31 -11 c22 -7 27 -14 20 -21 -6 -6 -11 -44 -11 -84 0 -71 -1 -73 -25 -73 l-25
0 0 295 c0 331 4 315 -76 315 l-38 0 51 25 c28 15 57 33 63 40 17 21 28 19 66
-10z m377 -1 c43 -29 109 -54 143 -54 l24 0 0 -289 c0 -159 3 -296 6 -305 5
-13 -2 -16 -45 -16 l-51 0 0 80 c0 57 -4 80 -12 80 -7 0 3 8 22 18 l35 17 2
190 c2 109 -1 196 -7 205 -7 12 -40 16 -152 20 -91 3 -131 8 -111 12 18 4 47
21 65 37 18 17 35 31 38 31 3 0 22 -11 43 -26z m-186 -10 c-3 -3 -12 -4 -19
-1 -8 3 -5 6 6 6 11 1 17 -2 13 -5z m340 0 c-3 -3 -12 -4 -19 -1 -8 3 -5 6 6
6 11 1 17 -2 13 -5z m-697 -91 c-158 -7 -330 -7 -330 0 0 4 89 6 198 5 108 -1
168 -3 132 -5z m630 -173 l0 -180 -242 2 -243 3 238 2 237 3 0 170 0 170 -237
3 -238 2 243 3 242 2 0 -180z m-610 -130 l0 -260 -155 0 -155 0 0 260 0 260
155 0 155 0 0 -260z m520 -215 l0 -45 -155 0 -155 0 0 45 0 45 155 0 155 0 0
-45z"/>
<path d="M687 2080 c-3 -8 -11 -32 -17 -52 -14 -46 -48 -74 -100 -83 -51 -9
-51 -21 1 -29 54 -9 94 -49 104 -104 9 -53 21 -54 29 -1 9 54 51 96 105 105
52 8 52 20 2 28 -56 9 -90 42 -106 101 -7 28 -15 43 -18 35z"/>
<path d="M3172 2044 c-15 -56 -53 -92 -104 -100 -48 -8 -49 -20 0 -28 54 -9
81 -35 102 -97 18 -53 22 -53 35 5 9 43 56 84 104 92 51 8 53 20 3 28 -53 8
-89 39 -103 89 -18 61 -23 62 -37 11z"/>
<path d="M802 1164 l-72 -55 30 -44 c17 -25 35 -45 40 -45 20 0 21 24 1 50
-28 39 -8 49 23 13 21 -24 25 -26 31 -11 4 9 0 27 -9 40 -13 21 -13 24 8 40
21 15 23 15 42 -13 21 -32 23 -33 43 -20 11 7 6 18 -20 54 -19 26 -36 46 -39
46 -3 1 -38 -24 -78 -55z"/>
<path d="M2978 1194 c-29 -15 -58 -61 -58 -89 0 -55 72 -112 125 -99 34 8 75
59 75 93 0 28 -26 61 -48 61 -6 0 -20 -14 -32 -30 -20 -28 -20 -31 -4 -37 11
-4 22 1 30 12 13 18 14 17 14 -7 0 -51 -68 -70 -102 -28 -26 32 -22 56 12 82
17 12 30 30 30 40 0 22 -6 22 -42 2z"/>
<path d="M886 1055 c-58 -56 -66 -67 -56 -81 12 -13 18 -10 53 23 l39 38 -6
-77 c-5 -61 -4 -78 6 -78 20 0 141 126 134 139 -11 17 -23 13 -61 -21 l-36
-31 7 76 c4 44 3 77 -2 77 -5 -1 -40 -30 -78 -65z"/>
<path d="M2864 1059 c-3 -6 9 -26 27 -45 l33 -34 -77 0 c-42 0 -77 -4 -77 -8
0 -12 124 -132 137 -132 27 0 23 24 -10 58 l-36 37 74 -3 c41 -2 75 0 75 5 0
10 -122 133 -132 133 -4 0 -10 -5 -14 -11z"/>
<path d="M1044 916 c-38 -44 -50 -53 -61 -44 -18 14 -36 -2 -27 -25 7 -20 39
-31 57 -20 25 15 108 115 104 126 -8 25 -28 15 -73 -37z"/>
<path d="M2737 947 c-15 -11 -14 -16 16 -53 83 -104 87 -108 103 -93 12 13 6
24 -45 86 -50 62 -60 71 -74 60z"/>
<path d="M1095 877 c-46 -46 -49 -95 -6 -138 62 -62 171 -20 171 65 0 48 -42
95 -92 103 -33 5 -41 2 -73 -30z m105 -27 c55 -55 -24 -136 -82 -83 -26 23
-22 58 8 82 33 26 49 26 74 1z"/>
<path d="M2642 874 l-43 -26 17 -26 c92 -142 91 -141 111 -121 9 9 8 17 -3 34
-14 21 -13 25 16 54 33 33 34 57 2 94 -21 24 -50 21 -100 -9z m76 -38 c3 -11
-4 -26 -14 -33 -15 -11 -19 -10 -32 8 -11 16 -11 23 -1 35 16 20 43 14 47 -10z"/>
<path d="M1293 769 c5 -45 3 -68 -9 -91 -16 -30 -13 -58 6 -58 6 0 18 16 27
35 12 24 34 45 72 66 51 29 54 32 36 45 -16 12 -23 11 -50 -6 -37 -23 -45 -19
-45 26 0 28 -13 44 -37 44 -3 0 -3 -27 0 -61z"/>
<path d="M2513 800 c-24 -10 -43 -22 -43 -25 0 -13 81 -165 88 -165 4 0 13 4
21 9 13 8 12 13 -1 32 -14 22 -13 24 16 44 40 27 46 68 15 101 -27 29 -41 29
-96 4z m72 -37 c4 -12 -1 -24 -16 -36 -22 -18 -23 -18 -35 5 -11 19 -10 25 3
36 23 17 40 15 48 -5z"/>
<path d="M2354 734 c-93 -46 -58 -184 46 -184 102 0 139 139 49 186 -35 18
-56 17 -95 -2z m86 -44 c39 -39 14 -100 -41 -100 -30 0 -59 31 -59 62 0 24 35
58 60 58 11 0 29 -9 40 -20z"/>
<path d="M1496 733 c-12 -12 -5 -32 13 -38 18 -5 18 -8 -4 -78 -21 -66 -22
-73 -7 -78 23 -9 26 -4 47 68 16 54 21 62 46 65 25 4 28 2 24 -16 -31 -138
-31 -146 -5 -146 13 0 20 7 20 19 0 26 12 32 48 25 28 -6 30 -9 26 -34 -4 -19
-1 -29 10 -33 20 -8 29 13 45 107 10 55 10 71 0 77 -20 12 -28 2 -35 -42 -5
-31 -11 -39 -28 -39 -39 0 -49 14 -41 58 l7 41 -41 11 c-22 6 -58 17 -79 24
-22 8 -43 12 -46 9z"/>
<path d="M2234 651 c6 -49 6 -49 -24 -56 -37 -8 -35 -10 -47 40 -5 24 -15 40
-23 40 -18 0 -18 -44 -1 -127 10 -48 16 -58 33 -58 17 0 20 4 15 30 -6 26 -3
31 18 36 34 8 55 -1 55 -26 0 -13 7 -20 20 -20 24 0 24 4 3 108 -14 68 -20 82
-36 82 -18 0 -19 -5 -13 -49z"/>
<path d="M1787 618 c-4 -29 -7 -72 -7 -94 0 -46 12 -54 78 -54 25 0 32 4 32
20 0 16 -7 20 -35 20 -44 0 -46 18 -2 22 40 4 44 32 5 36 -24 3 -28 8 -28 34
0 29 1 30 34 24 25 -5 35 -3 39 8 8 20 2 22 -59 31 l-51 6 -6 -53z"/>
<path d="M2000 650 c-34 -34 -19 -70 40 -99 43 -21 43 -35 0 -39 -68 -6 -62
-42 8 -42 31 0 72 28 72 51 0 24 -23 50 -61 69 -44 23 -44 40 1 40 33 0 49 18
29 31 -24 15 -68 10 -89 -11z"/>
</g>
</svg>
